<?xml version="1.0" encoding="utf-8"?>
<!-- Generator: Adobe Illustrator 16.0.4, SVG Export Plug-In . SVG Version: 6.00 Build 0)  -->
<!DOCTYPE svg PUBLIC "-//W3C//DTD SVG 1.1//EN" "http://www.w3.org/Graphics/SVG/1.1/DTD/svg11.dtd">
<svg version="1.1" xmlns="http://www.w3.org/2000/svg" xmlns:xlink="http://www.w3.org/1999/xlink" x="0px" y="0px"
	 width="38.987px" height="35.308px" viewBox="0 0 38.987 35.308" enable-background="new 0 0 38.987 35.308" xml:space="preserve">
<g id="Layer_2">
</g>
<g id="Layer_1">
	<ellipse fill="#FFFFFF" cx="19.672" cy="16.474" rx="18.069" ry="16.216"/>
	<path fill="#F1F2F2" d="M35.058,4.079c-1.168-1.548-2.523-2.87-4.009-3.963c1.14,0.923,2.188,1.998,3.112,3.222
		c6.104,8.096,4.491,19.61-3.605,25.715c-8.096,6.104-19.61,4.491-25.715-3.605C-1.178,17.465,0.31,6.168,8.108,0
		C7.991,0.084,7.873,0.164,7.757,0.25c-8.595,6.482-10.309,18.704-3.827,27.3c6.481,8.595,18.704,10.309,27.299,3.827
		C39.825,24.896,41.538,12.673,35.058,4.079z"/>
	<polygon fill="#009BDF" points="2.803,14.591 20.021,27.145 36.134,14.591 20.021,21.695 	"/>
</g>
</svg>
