<?xml version="1.0" encoding="utf-8"?>
<!-- Generator: Adobe Illustrator 16.0.4, SVG Export Plug-In . SVG Version: 6.00 Build 0)  -->
<!DOCTYPE svg PUBLIC "-//W3C//DTD SVG 1.1//EN" "http://www.w3.org/Graphics/SVG/1.1/DTD/svg11.dtd">
<svg version="1.1" xmlns="http://www.w3.org/2000/svg" xmlns:xlink="http://www.w3.org/1999/xlink" x="0px" y="0px" width="100px"
	 height="100px" viewBox="0 0 100 100" enable-background="new 0 0 100 100" xml:space="preserve">
<g id="Layer_1" display="none">
	<g display="inline">
		<circle fill="#1A99D6" cx="50.144" cy="50.264" r="34.478"/>
		<g>
			<circle fill="#FFFFFF" cx="50.297" cy="50.04" r="31.116"/>
			<g>
				<path fill-rule="evenodd" clip-rule="evenodd" fill="#8B5E3C" d="M50.297,64.539c0.083-0.29,1.255,0.873,9.788-0.581
					c8.534-1.453,3.849-11.342,3.849-14.106c0-2.763,1.59-8.871,1.59-8.871c2.006-15.124-15.226-14.616-15.226-14.616
					s-17.233-0.508-15.226,14.616c0,0,1.589,6.108,1.589,8.871c0,2.764-4.685,12.653,3.849,14.106
					C49.043,65.412,50.214,64.249,50.297,64.539z"/>
				<path d="M64.524,46.891h-1.01c1.448,11.896-9.325,11.004-9.325,11.004c0.273,1.994-0.814,3.136-0.814,3.136h-3.078h-0.002
					h-3.079c0,0-1.087-1.142-0.814-3.136c0,0-10.774,0.892-9.326-11.004h-1.007c0,0-9.131,18.51,7.526,22.788
					c0,0,2.449,1.329,6.7,1.424l0,0h0.001h0.001l0,0c4.25-0.095,6.699-1.424,6.699-1.424C73.654,65.401,64.524,46.891,64.524,46.891
					z"/>
				<g id="XMLID_37_">
					<g>
						<path d="M66.197,44.28c0.002,0.093-0.049,0.202-0.121,0.278c-0.322,0.338-0.496,0.722-0.63,1.125
							c-0.124,0.388-0.283,0.773-0.43,1.157c-0.159,0.42-0.315,0.84-0.483,1.259c-0.314,0.785-0.893,1.4-1.846,1.76
							c-0.595,0.226-1.232,0.307-1.883,0.333c-0.633,0.023-1.271,0.05-1.904,0.047c-0.47-0.006-0.94-0.05-1.406-0.089
							c-0.355-0.035-0.709-0.079-1.062-0.132c-0.908-0.147-1.753-0.411-2.445-0.919c-0.42-0.308-0.752-0.673-1.006-1.079
							c-0.16-0.255-1.181-2.124-1.215-2.223c-0.157-0.455-0.331-0.904-0.499-1.353c-0.109-0.277-0.22-0.555-0.31-0.833
							c-0.048-0.149-0.151-0.249-0.321-0.296c-0.315-0.082-0.635-0.083-0.948,0.01c-0.177,0.056-0.259,0.168-0.308,0.309
							c-0.23,0.655-0.471,1.307-0.696,1.962c-0.073,0.205-0.82,1.698-0.895,1.801c-0.281,0.393-0.528,0.799-0.837,1.175
							c-0.403,0.486-0.952,0.849-1.626,1.089c-0.738,0.259-1.516,0.383-2.306,0.479c-0.844,0.102-1.688,0.145-2.538,0.114
							c-0.439-0.013-0.877-0.062-1.311-0.104c-0.314-0.035-0.634-0.061-0.938-0.126c-0.908-0.191-1.631-0.592-2.058-1.279
							c-0.125-0.202-0.217-0.415-0.31-0.627c-0.171-0.407-0.34-0.815-0.501-1.227c-0.217-0.551-0.431-1.105-0.629-1.664
							c-0.067-0.192-0.16-0.358-0.361-0.486c-0.261-0.161-0.261-0.396-0.249-0.628c0.016-0.319,0.037-0.635,0.053-0.953
							c0.026-0.416,0.045-0.831,0.074-1.244c0.012-0.177,0.19-0.324,0.425-0.358c0.557-0.081,1.113-0.163,1.67-0.236
							c0.729-0.095,1.456-0.195,2.184-0.27c0.708-0.071,1.419-0.125,2.128-0.169c0.636-0.039,1.27-0.077,1.906-0.077
							c0.967,0,1.928,0.059,2.883,0.194c0.691,0.098,1.385,0.18,2.078,0.27c0.92,0.121,1.844,0.2,2.776,0.178
							c0.689-0.014,1.381-0.063,2.071-0.13c0.583-0.056,1.159-0.169,1.743-0.234c0.736-0.082,1.472-0.165,2.214-0.201
							c0.854-0.043,1.716-0.047,2.575-0.043c0.533,0.005,1.068,0.057,1.599,0.095c0.556,0.039,1.108,0.083,1.661,0.136
							c0.385,0.035,0.77,0.093,1.15,0.142c0.374,0.048,0.748,0.098,1.121,0.153c0.432,0.062,0.861,0.125,1.291,0.194
							c0.242,0.04,0.391,0.179,0.4,0.378C66.156,42.717,66.182,43.498,66.197,44.28z M64.211,45.092
							c0.005-0.522-0.059-1.038-0.16-1.551c-0.072-0.368-0.307-0.644-0.73-0.808c-0.547-0.212-1.098-0.407-1.691-0.519
							c-0.43-0.081-0.867-0.173-1.303-0.207c-0.721-0.055-1.443-0.067-2.166-0.098c0,0.011-0.002,0.022-0.002,0.03
							c-0.247,0-0.494,0.002-0.742,0c-1.139,0-2.258,0.102-3.35,0.366c-0.418,0.101-0.836,0.209-1.203,0.416
							c-0.482,0.273-0.686,0.658-0.658,1.117c0.014,0.247,0.088,0.494,0.125,0.741c0.08,0.503,0.246,0.986,0.473,1.455
							c0.197,0.403,0.427,0.801,0.676,1.186c0.215,0.327,0.469,0.638,0.732,0.944c0.283,0.327,0.637,0.608,1.1,0.773
							c0.338,0.123,0.693,0.222,1.049,0.304c0.314,0.07,0.641,0.112,0.966,0.155c0.239,0.032,0.487,0.059,0.735,0.066
							c0.508,0.015,1.02,0.038,1.527,0.015c0.557-0.028,1.113-0.105,1.672-0.153c0.904-0.07,1.594-0.41,1.999-1.06
							c0.222-0.361,0.397-0.745,0.565-1.127C64.113,46.475,64.201,45.79,64.211,45.092z M48.147,43.969
							c0.107-0.545-0.188-1.025-0.8-1.295c-0.502-0.219-1.017-0.409-1.599-0.45c-0.202-0.014-0.401-0.047-0.6-0.071
							c-0.438-0.051-0.871-0.104-1.307-0.152c-0.344-0.038-0.69-0.071-1.036-0.098c-0.169-0.012-0.342-0.012-0.512-0.009
							c-0.079,0.002-0.155,0.036-0.23,0.039c-0.934,0.019-1.858,0.06-2.78,0.188c-0.705,0.096-1.387,0.238-2.03,0.5
							c-0.417,0.167-0.77,0.375-0.886,0.758c-0.073,0.246-0.139,0.497-0.167,0.749c-0.046,0.471-0.125,0.939-0.053,1.411
							c0.046,0.299,0.066,0.605,0.139,0.9c0.117,0.454,0.284,0.905,0.52,1.333c0.176,0.317,0.346,0.637,0.621,0.912
							c0.346,0.342,0.813,0.496,1.346,0.591c0.862,0.151,1.732,0.176,2.589,0.226c0.948-0.044,1.881-0.081,2.791-0.285
							c0.667-0.148,1.247-0.398,1.729-0.799c0.476-0.39,0.776-0.874,1.086-1.345c0.256-0.392,0.451-0.815,0.657-1.229
							c0.104-0.209,0.199-0.426,0.256-0.645C47.987,44.79,48.067,44.379,48.147,43.969z"/>
						<path fill="#B29580" d="M64.051,43.542c0.102,0.513,0.165,1.028,0.16,1.551c-0.01,0.698-0.098,1.383-0.387,2.045
							c-0.168,0.382-0.344,0.766-0.565,1.127c-0.405,0.649-1.095,0.99-1.999,1.06c-0.559,0.047-1.115,0.125-1.672,0.153
							c-0.508,0.023-1.02,0-1.527-0.015c-0.248-0.007-0.496-0.034-0.735-0.066c-0.325-0.043-0.651-0.084-0.966-0.155
							c-0.355-0.083-0.711-0.181-1.049-0.304c-0.463-0.166-0.816-0.447-1.1-0.773c-0.264-0.306-0.518-0.617-0.732-0.944
							c-0.249-0.385-0.479-0.783-0.676-1.186c-0.227-0.469-0.393-0.952-0.473-1.455c-0.037-0.247-0.111-0.494-0.125-0.741
							c-0.027-0.458,0.176-0.844,0.658-1.117c0.367-0.206,0.785-0.315,1.203-0.416c1.092-0.265,2.211-0.366,3.35-0.366
							c0.248,0.002,0.495,0,0.742,0c0-0.008,0.002-0.02,0.002-0.03c0.723,0.03,1.445,0.043,2.166,0.098
							c0.436,0.034,0.873,0.126,1.303,0.207c0.594,0.112,1.145,0.307,1.691,0.519C63.744,42.898,63.979,43.173,64.051,43.542z"/>
						<path fill="#B29580" d="M47.347,42.674c0.612,0.27,0.907,0.75,0.8,1.295c-0.08,0.41-0.16,0.82-0.265,1.227
							c-0.058,0.219-0.152,0.435-0.256,0.645c-0.206,0.414-0.401,0.838-0.657,1.229c-0.31,0.472-0.61,0.955-1.086,1.345
							c-0.482,0.401-1.062,0.651-1.729,0.799c-0.909,0.204-1.843,0.241-2.791,0.285c-0.857-0.05-1.728-0.075-2.589-0.226
							c-0.533-0.095-1-0.249-1.346-0.591c-0.274-0.274-0.445-0.594-0.621-0.912c-0.236-0.428-0.403-0.879-0.52-1.333
							c-0.073-0.295-0.093-0.601-0.139-0.9c-0.071-0.472,0.007-0.94,0.053-1.411c0.027-0.252,0.093-0.503,0.167-0.749
							c0.116-0.382,0.47-0.591,0.886-0.758c0.643-0.262,1.325-0.404,2.03-0.5c0.922-0.128,1.847-0.168,2.78-0.188
							c0.075-0.003,0.151-0.037,0.23-0.039c0.169-0.003,0.342-0.003,0.512,0.009c0.345,0.026,0.691,0.06,1.036,0.098
							c0.437,0.049,0.87,0.101,1.307,0.152c0.199,0.024,0.397,0.058,0.6,0.071C46.33,42.265,46.844,42.456,47.347,42.674z"/>
					</g>
					<g>
					</g>
				</g>
				<path d="M50.297,72.388c-0.472,0.697-0.138,1.329-0.138,1.329c-1.466-0.569-1.48-1.708-1.48-1.708c-0.475,0.633,0,1.265,0,1.265
					c-1.426-0.507-1.426-2.213-1.426-2.213c-0.664,0.189-0.664,0.948-0.664,0.948c-1.236-0.316-1.236-1.58-1.236-1.58
					c-0.57,0.505,0,1.264,0,1.264c-1.235-0.126-1.615-1.58-1.615-1.58l-1.135-1.623h15.388l-1.134,1.623c0,0-0.379,1.454-1.615,1.58
					c0,0,0.568-0.759,0-1.264c0,0,0,1.264-1.236,1.58c0,0,0-0.759-0.666-0.948c0,0,0,1.706-1.424,2.213c0,0,0.474-0.632,0-1.265
					c0,0-0.016,1.139-1.48,1.708C50.436,73.717,50.77,73.085,50.297,72.388"/>
			</g>
		</g>
	</g>
</g>
<g id="Layer_2" display="none">
	<g display="inline">
		<circle fill="#F1F2F2" cx="49.779" cy="50.027" r="25.571"/>
		<circle fill="#FFFFFF" cx="49.779" cy="50.029" r="23.152"/>
		<path fill="#009BDF" d="M58.844,64.52c0,0.18-0.146,0.324-0.325,0.324h-17.48c-0.178,0-0.323-0.145-0.323-0.324V36.568
			c0-0.178,0.145-0.324,0.323-0.324h17.48c0.179,0,0.325,0.146,0.325,0.324V64.52z"/>
		<path fill="#F1F2F2" d="M58.281,59.74c0,0.145-0.136,0.262-0.303,0.262H41.692c-0.166,0-0.302-0.117-0.302-0.262V37.07
			c0-0.146,0.136-0.264,0.302-0.264h16.286c0.167,0,0.303,0.117,0.303,0.264V59.74z"/>
		<path fill="#F1F2F2" d="M49.836,61.367c-0.603,0-1.089,0.486-1.089,1.088s0.487,1.088,1.089,1.088
			c0.601,0,1.088-0.486,1.088-1.088S50.437,61.367,49.836,61.367z M49.836,63.441c-0.545,0-0.986-0.443-0.986-0.986
			c0-0.545,0.441-0.984,0.986-0.984c0.544,0,0.985,0.439,0.985,0.984C50.821,62.998,50.38,63.441,49.836,63.441z"/>
	</g>
</g>
<g id="Layer_3" display="none">
	<circle display="inline" fill="#F1F2F2" cx="50.078" cy="50.387" r="25.75"/>
	<circle display="inline" fill="#FFFFFF" cx="50.078" cy="50.389" r="23.314"/>
	<polygon display="inline" fill="#009BDF" points="59.99,64.719 39.535,64.719 39.535,34.252 56.738,34.252 59.99,36.918 	"/>
	<g display="inline">
		<rect x="41.417" y="38.686" fill="#FFFFFF" width="16.283" height="0.945"/>
		<rect x="41.417" y="42.85" fill="#FFFFFF" width="16.283" height="0.947"/>
		<rect x="41.417" y="46.73" fill="#FFFFFF" width="16.283" height="0.947"/>
		<rect x="41.826" y="51.229" fill="#FFFFFF" width="16.283" height="0.947"/>
		<rect x="41.826" y="55.393" fill="#FFFFFF" width="16.283" height="0.947"/>
		<rect x="41.826" y="59.275" fill="#FFFFFF" width="16.283" height="0.945"/>
	</g>
</g>
<g id="Layer_4">
	<circle fill="#F1F2F2" cx="49.968" cy="49.707" r="25.57"/>
	<circle fill="#FFFFFF" cx="49.968" cy="49.709" r="23.151"/>
	<path fill="#009BDF" d="M63.943,40.645c0.18,0,0.325,0.145,0.325,0.324v17.479c0,0.178-0.146,0.324-0.325,0.324H35.992
		c-0.179,0-0.324-0.146-0.324-0.324V40.969c0-0.18,0.146-0.324,0.324-0.324H63.943z"/>
	<polyline fill="#FFFFFF" points="36.119,40.969 49.985,49.707 63.852,40.969 	"/>
</g>
</svg>
