<?xml version="1.0" encoding="utf-8"?>
<!-- Generator: Adobe Illustrator 16.0.4, SVG Export Plug-In . SVG Version: 6.00 Build 0)  -->
<!DOCTYPE svg PUBLIC "-//W3C//DTD SVG 1.1//EN" "http://www.w3.org/Graphics/SVG/1.1/DTD/svg11.dtd">
<svg version="1.1" id="Layer_1" xmlns="http://www.w3.org/2000/svg" xmlns:xlink="http://www.w3.org/1999/xlink" x="0px" y="0px"
	 width="232.373px" height="239.853px" viewBox="0 0 232.373 239.853" enable-background="new 0 0 232.373 239.853"
	 xml:space="preserve">
<g>
	<path fill="#F1F2F2" d="M116.185,7.486c-11.555,0-22.709,1.713-33.246,4.854c8.489-2.113,17.36-3.248,26.5-3.248
		c60.44,0,109.442,48.998,109.442,109.438c0,60.44-49.002,109.438-109.442,109.438c-59.58,0-108.005-47.621-109.375-106.866
		C0.047,121.958,0,122.808,0,123.67c0,64.165,52.017,116.183,116.185,116.183c64.164,0,116.188-52.018,116.188-116.183
		C232.373,59.503,180.349,7.486,116.185,7.486z"/>
</g>
<g>
	<path fill="#009BDF" d="M-213.93,144.886c-2.562,3.178-6.37,4.766-11.432,4.766c-3.542,0-6.552-0.915-9.026-2.742
		c-2.477-1.828-4.191-4.034-5.146-6.623l1.602-0.76c1.125,2.532,2.785,4.571,4.978,6.118s4.725,2.319,7.593,2.319
		c2.417,0,4.472-0.407,6.159-1.224c1.688-0.813,3.064-1.954,4.134-3.417c1.066-1.462,1.856-3.191,2.361-5.188
		c0.506-1.995,0.759-4.176,0.759-6.539V88.406h1.856v43.446C-210.092,137.364-211.374,141.709-213.93,144.886z"/>
	<path fill="#009BDF" d="M-163.271,148.134l-4.977-12.232h-24.972l-5.314,12.232h-1.941l18.982-43.784h1.855l18.392,43.784H-163.271
		z M-180.564,106.206l-11.98,28.009h23.538L-180.564,106.206z"/>
	<path fill="#009BDF" d="M-150.618,148.134v-43.868h1.854v43.868H-150.618z"/>
	<path fill="#009BDF" d="M-107.003,148.134l-12.739-21.682h-9.954v21.682h-1.856v-43.868h11.81c1.744,0,3.459,0.184,5.147,0.548
		c1.688,0.368,3.206,0.985,4.557,1.857c1.349,0.873,2.43,2.024,3.248,3.458c0.813,1.433,1.222,3.22,1.222,5.355
		c0,1.913-0.352,3.545-1.055,4.894c-0.703,1.35-1.632,2.448-2.784,3.291c-1.153,0.844-2.46,1.476-3.923,1.897
		c-1.461,0.424-2.952,0.69-4.471,0.802l12.907,21.766H-107.003z M-107.425,115.485c0-1.798-0.354-3.317-1.055-4.554
		c-0.704-1.236-1.632-2.222-2.784-2.953c-1.153-0.729-2.489-1.251-4.008-1.56c-1.518-0.309-3.12-0.465-4.808-0.465h-9.617v18.813
		h10.123c3.937,0,6.947-0.787,9.028-2.362C-108.466,120.829-107.425,118.522-107.425,115.485z"/>
	<path fill="#009BDF" d="M-58.832,131.515c0,2.362-0.296,4.612-0.887,6.749c-0.589,2.137-1.533,4.022-2.826,5.651
		c-1.294,1.632-2.996,2.94-5.104,3.923c-2.109,0.983-4.683,1.477-7.719,1.477c-3.036,0-5.61-0.494-7.718-1.477
		c-2.11-0.983-3.812-2.291-5.105-3.923c-1.294-1.629-2.234-3.515-2.825-5.651c-0.591-2.137-0.886-4.387-0.886-6.749v-27.333h1.856
		v27.165c0,2.138,0.253,4.175,0.76,6.116c0.505,1.94,1.348,3.642,2.53,5.104c1.181,1.462,2.7,2.644,4.554,3.542
		c1.857,0.901,4.135,1.35,6.834,1.35c2.7,0,4.978-0.449,6.832-1.35c1.858-0.899,3.376-2.08,4.557-3.542
		c1.182-1.462,2.025-3.164,2.53-5.104c0.507-1.941,0.76-3.978,0.76-6.116v-27.165h1.856V131.515z"/>
	<path fill="#009BDF" d="M-20.366,137.504c0,1.913-0.366,3.6-1.096,5.062c-0.73,1.462-1.701,2.699-2.911,3.711
		c-1.209,1.012-2.63,1.772-4.26,2.278c-1.632,0.506-3.32,0.759-5.063,0.759c-2.698,0-5.174-0.494-7.422-1.477
		c-2.25-0.983-4.106-2.347-5.568-4.091l1.435-1.266c1.461,1.632,3.191,2.87,5.188,3.711c1.995,0.846,4.091,1.266,6.285,1.266
		c1.518,0,2.98-0.211,4.386-0.633c1.405-0.422,2.628-1.055,3.67-1.898c1.041-0.842,1.883-1.883,2.531-3.121
		c0.645-1.237,0.97-2.67,0.97-4.302c0-1.688-0.325-3.093-0.97-4.218c-0.648-1.124-1.519-2.081-2.617-2.869
		c-1.097-0.785-2.333-1.447-3.712-1.982c-1.378-0.533-2.771-1.026-4.176-1.476c-1.743-0.562-3.361-1.152-4.85-1.772
		c-1.491-0.618-2.784-1.391-3.881-2.32c-1.096-0.928-1.954-2.038-2.573-3.332c-0.619-1.292-0.928-2.868-0.928-4.725
		c0-1.855,0.366-3.514,1.098-4.977c0.73-1.462,1.714-2.7,2.951-3.712c1.238-1.014,2.673-1.785,4.303-2.321
		c1.631-0.533,3.347-0.801,5.147-0.801c2.362,0,4.525,0.451,6.495,1.35c1.968,0.901,3.571,2.139,4.808,3.711l-1.434,1.265
		c-1.126-1.46-2.544-2.572-4.26-3.331c-1.715-0.759-3.614-1.139-5.694-1.139c-1.462,0-2.882,0.21-4.259,0.633
		c-1.38,0.422-2.603,1.055-3.671,1.898c-1.067,0.844-1.939,1.885-2.614,3.121c-0.675,1.238-1.013,2.671-1.013,4.302
		c0,1.632,0.308,3.011,0.927,4.134c0.618,1.126,1.42,2.082,2.405,2.87c0.983,0.788,2.11,1.448,3.375,1.983
		c1.265,0.535,2.543,0.998,3.837,1.391c1.856,0.62,3.586,1.252,5.188,1.899c1.604,0.646,2.995,1.435,4.177,2.362
		c1.181,0.928,2.108,2.038,2.784,3.333C-20.703,134.075-20.366,135.648-20.366,137.504z"/>
</g>
<g>
	<path fill="#009BDF" d="M253.047,90.092v26.235h29.946v1.688h-29.946v30.117h-1.856V88.405h34.08v1.688H253.047z"/>
	<path fill="#009BDF" d="M327.961,131.513c0,2.363-0.294,4.612-0.884,6.748c-0.59,2.14-1.539,4.023-2.832,5.654
		c-1.292,1.631-2.996,2.94-5.099,3.922c-2.112,0.983-4.685,1.476-7.72,1.476c-3.04,0-5.613-0.493-7.72-1.476
		c-2.107-0.982-3.812-2.292-5.104-3.922c-1.296-1.63-2.237-3.514-2.826-5.654c-0.59-2.135-0.885-4.385-0.885-6.748v-27.333h1.856
		v27.165c0,2.138,0.251,4.175,0.757,6.116c0.507,1.94,1.349,3.643,2.529,5.104c1.184,1.462,2.701,2.643,4.557,3.542
		c1.854,0.9,4.133,1.35,6.835,1.35c2.697,0,4.977-0.449,6.836-1.35c1.855-0.899,3.372-2.081,4.551-3.542
		c1.18-1.462,2.022-3.165,2.531-5.104c0.504-1.94,0.757-3.978,0.757-6.116v-27.165h1.859V131.513z"/>
	<path fill="#009BDF" d="M353.857,105.952v42.18h-1.86v-42.18h-14.841v-1.688h31.466v1.688H353.857z"/>
	<path fill="#009BDF" d="M403.04,148.132l-12.738-21.681h-9.956v21.681h-1.854v-43.867h11.811c1.739,0,3.459,0.183,5.143,0.548
		c1.688,0.365,3.21,0.984,4.558,1.855c1.348,0.873,2.434,2.025,3.251,3.459c0.813,1.433,1.22,3.22,1.22,5.356
		c0,1.913-0.35,3.543-1.052,4.893c-0.706,1.351-1.635,2.447-2.787,3.291s-2.457,1.477-3.925,1.898
		c-1.459,0.422-2.948,0.689-4.47,0.802l12.909,21.765H403.04z M402.617,115.484c0-1.798-0.353-3.316-1.055-4.554
		c-0.708-1.237-1.631-2.222-2.779-2.953c-1.156-0.731-2.496-1.252-4.009-1.562c-1.522-0.307-3.126-0.462-4.814-0.462h-9.614v18.812
		h10.123c3.939,0,6.943-0.787,9.023-2.361C401.573,120.828,402.617,118.522,402.617,115.484z"/>
	<path fill="#009BDF" d="M418.814,148.132v-43.867h25.645v1.688h-23.791v18.559h22.356v1.688h-22.356v20.247h24.721v1.687H418.814z"
		/>
	<path fill="#009BDF" d="M459.051,148.132v-43.867h1.859v42.18h21.424v1.687H459.051z"/>
	<path fill="#009BDF" d="M491.952,148.132v-43.867h1.856v42.18h21.425v1.687H491.952z"/>
</g>
<g>
	<path fill="#4A494A" d="M-7.289,262.739l0.048,0.041l17.787-10.229l1.853,1.536l-20.624,11.65l-1.83-1.513l7.602-22.432
		l1.875,1.553L-7.289,262.739z"/>
	<path fill="#4A494A" d="M5.762,276.198l-1.749-1.21l8.288-12.05l1.75,1.206L5.762,276.198z M17.598,259.761
		c-0.248,0.36-0.581,0.566-0.997,0.619c-0.417,0.057-0.779-0.023-1.089-0.239c-0.309-0.215-0.512-0.524-0.611-0.932
		c-0.096-0.404-0.021-0.792,0.228-1.154c0.247-0.36,0.578-0.57,0.996-0.621c0.417-0.056,0.778,0.027,1.088,0.239
		c0.308,0.209,0.512,0.521,0.609,0.931C17.919,259.014,17.846,259.397,17.598,259.761z"/>
	<path fill="#4A494A" d="M26.038,275.676c0.034-0.681-0.124-1.346-0.479-2.001c-0.354-0.652-0.88-1.187-1.582-1.595
		c-0.324-0.191-0.67-0.344-1.035-0.462c-0.365-0.119-0.722-0.171-1.069-0.156c-0.345,0.017-0.668,0.103-0.969,0.265
		c-0.3,0.166-0.549,0.416-0.75,0.759c-0.345,0.595-0.369,1.189-0.067,1.791c0.304,0.596,0.913,1.311,1.828,2.137
		c1.314,1.179,2.154,2.271,2.523,3.27c0.369,1,0.265,1.997-0.313,2.986c-0.42,0.718-0.915,1.245-1.481,1.576
		s-1.169,0.525-1.801,0.575c-0.635,0.052-1.273-0.021-1.92-0.219c-0.642-0.194-1.254-0.463-1.829-0.797
		c-0.953-0.56-1.763-1.301-2.43-2.225c-0.669-0.919-1.044-1.973-1.126-3.154l2.089-0.229c-0.005,0.75,0.2,1.495,0.608,2.239
		c0.409,0.747,0.991,1.341,1.745,1.786c0.396,0.229,0.795,0.416,1.197,0.555c0.401,0.137,0.79,0.195,1.165,0.174
		c0.375-0.022,0.723-0.126,1.049-0.309c0.325-0.184,0.606-0.481,0.849-0.897c0.389-0.665,0.362-1.35-0.083-2.059
		c-0.442-0.705-1.183-1.555-2.219-2.548c-0.326-0.312-0.66-0.66-1.002-1.04c-0.345-0.382-0.62-0.812-0.828-1.284
		c-0.208-0.47-0.312-0.97-0.314-1.505c-0.004-0.535,0.169-1.096,0.516-1.689c0.378-0.646,0.827-1.128,1.347-1.439
		c0.52-0.309,1.076-0.491,1.674-0.538c0.596-0.051,1.205,0.012,1.829,0.184c0.624,0.17,1.222,0.423,1.796,0.764
		c0.883,0.512,1.622,1.211,2.217,2.093c0.595,0.879,0.89,1.802,0.883,2.761L26.038,275.676z"/>
	<path fill="#4A494A" d="M40.515,295.151c0.124-0.378,0.272-0.792,0.449-1.235c0.176-0.447,0.328-0.814,0.456-1.1l-0.057-0.023
		c-0.73,0.61-1.63,0.965-2.702,1.065c-1.074,0.104-2.085-0.054-3.035-0.481c-1.696-0.753-2.74-1.827-3.136-3.213
		c-0.397-1.386-0.227-2.908,0.511-4.562l3.654-8.19l1.94,0.863l-3.297,7.396c-0.314,0.701-0.54,1.365-0.68,1.989
		c-0.142,0.62-0.164,1.195-0.069,1.729c0.09,0.532,0.32,1.019,0.685,1.452c0.365,0.438,0.899,0.812,1.602,1.128
		c0.516,0.229,1.061,0.349,1.64,0.355c0.58,0.005,1.153-0.118,1.726-0.377c0.569-0.259,1.117-0.666,1.639-1.221
		s0.979-1.275,1.379-2.173l3.054-6.851l1.941,0.865l-4.646,10.419c-0.161,0.36-0.36,0.831-0.594,1.412
		c-0.238,0.581-0.437,1.103-0.603,1.579L40.515,295.151z"/>
	<path fill="#4A494A" d="M64.871,293.711c0.375-1.205,0.333-2.201-0.12-2.991c-0.454-0.791-1.286-1.372-2.501-1.747
		c-0.833-0.262-1.658-0.353-2.467-0.274c-0.81,0.076-1.54,0.284-2.19,0.627l-0.719-1.694c0.756-0.398,1.666-0.638,2.73-0.724
		c1.061-0.086,2.19,0.059,3.383,0.426c0.758,0.235,1.433,0.558,2.023,0.971c0.592,0.413,1.071,0.905,1.439,1.479
		c0.366,0.569,0.591,1.22,0.674,1.941c0.08,0.722-0.013,1.51-0.277,2.371l-1.898,6.116c-0.168,0.537-0.323,1.101-0.46,1.691
		c-0.139,0.587-0.231,1.092-0.275,1.516l-1.821-0.565c0.046-0.355,0.111-0.736,0.193-1.148c0.085-0.411,0.185-0.806,0.303-1.184
		l-0.061-0.019c-0.927,0.739-1.857,1.187-2.79,1.344c-0.934,0.158-1.966,0.062-3.101-0.29c-0.538-0.168-1.066-0.41-1.586-0.737
		c-0.521-0.325-0.964-0.729-1.324-1.217c-0.363-0.481-0.615-1.041-0.757-1.675c-0.141-0.636-0.091-1.344,0.152-2.121
		c0.334-1.076,0.872-1.848,1.616-2.308c0.741-0.457,1.619-0.697,2.631-0.727c1.011-0.026,2.123,0.102,3.335,0.376
		c1.212,0.279,2.453,0.614,3.727,1.007L64.871,293.711z M63.636,295.582c-0.839-0.258-1.689-0.486-2.555-0.677
		c-0.869-0.191-1.679-0.292-2.431-0.297c-0.75-0.001-1.408,0.129-1.967,0.39c-0.562,0.266-0.946,0.723-1.15,1.379
		c-0.153,0.501-0.189,0.947-0.106,1.342c0.085,0.398,0.254,0.75,0.506,1.055c0.254,0.31,0.562,0.571,0.921,0.778
		c0.361,0.207,0.74,0.377,1.139,0.499c0.715,0.224,1.39,0.295,2.028,0.218c0.631-0.075,1.204-0.271,1.715-0.578
		c0.512-0.312,0.952-0.714,1.325-1.21c0.372-0.496,0.654-1.05,0.845-1.668l0.326-1.045L63.636,295.582z"/>
	<path fill="#4A494A" d="M75.653,306.137l-2.077-0.454l5.093-23.073l2.075,0.455L75.653,306.137z"/>
	<path fill="#4A494A" d="M107.767,288.381l7.343,0.029c1.376,0.008,2.756,0.241,4.14,0.704c1.382,0.462,2.629,1.161,3.74,2.091
		c1.109,0.933,2.006,2.093,2.688,3.479c0.681,1.391,1.018,3.002,1.011,4.832c-0.009,1.856-0.359,3.468-1.053,4.842
		c-0.693,1.374-1.598,2.519-2.717,3.444c-1.12,0.92-2.375,1.611-3.759,2.062c-1.389,0.455-2.769,0.676-4.144,0.67l-7.346-0.027
		L107.767,288.381z M109.931,308.517l4.469,0.019c1.666,0.004,3.12-0.25,4.363-0.765c1.241-0.519,2.272-1.195,3.087-2.037
		c0.816-0.842,1.429-1.801,1.84-2.882c0.412-1.081,0.619-2.195,0.625-3.341c0.004-1.146-0.195-2.262-0.597-3.347
		c-0.401-1.087-1.005-2.05-1.814-2.901c-0.809-0.845-1.834-1.529-3.07-2.058c-1.238-0.525-2.689-0.791-4.356-0.798l-4.47-0.015
		L109.931,308.517z"/>
	<path fill="#4A494A" d="M150.542,300.035c0.02,0.144,0.041,0.3,0.063,0.464c0.021,0.166,0.036,0.341,0.042,0.532l-12.014,1.647
		c0.12,0.719,0.359,1.378,0.715,1.983c0.357,0.604,0.806,1.112,1.346,1.517c0.539,0.413,1.147,0.714,1.827,0.903
		c0.677,0.191,1.389,0.236,2.131,0.133c1.093-0.15,2.004-0.532,2.729-1.146c0.725-0.613,1.247-1.279,1.571-2l1.75,1.026
		c-0.717,1.213-1.564,2.128-2.542,2.742c-0.977,0.619-2.062,1.011-3.259,1.175c-1.075,0.148-2.096,0.093-3.067-0.164
		c-0.973-0.258-1.834-0.68-2.59-1.27c-0.751-0.591-1.384-1.322-1.894-2.199c-0.511-0.879-0.839-1.862-0.99-2.955
		c-0.151-1.095-0.104-2.131,0.14-3.113c0.244-0.979,0.651-1.854,1.215-2.628c0.569-0.771,1.27-1.404,2.105-1.912
		c0.834-0.504,1.769-0.823,2.801-0.966c1.134-0.155,2.162-0.104,3.081,0.159c0.92,0.263,1.713,0.679,2.379,1.253
		c0.667,0.572,1.21,1.268,1.628,2.095C150.128,298.139,150.404,299.042,150.542,300.035z M148.311,299.649
		c-0.249-1.353-0.844-2.427-1.781-3.209c-0.94-0.791-2.164-1.077-3.669-0.872c-0.703,0.097-1.335,0.315-1.898,0.656
		c-0.562,0.34-1.042,0.763-1.435,1.267c-0.393,0.509-0.685,1.062-0.874,1.669c-0.191,0.599-0.264,1.218-0.219,1.842L148.311,299.649
		z"/>
	<path fill="#4A494A" d="M166.324,292.949c-0.449-0.514-1.03-0.877-1.739-1.098c-0.71-0.221-1.459-0.235-2.249-0.036
		c-0.365,0.088-0.718,0.22-1.062,0.391c-0.343,0.171-0.634,0.381-0.872,0.637c-0.237,0.254-0.408,0.538-0.508,0.865
		c-0.101,0.324-0.104,0.681-0.007,1.065c0.165,0.668,0.566,1.11,1.2,1.328c0.634,0.217,1.566,0.301,2.801,0.254
		c1.765-0.074,3.128,0.117,4.09,0.576c0.962,0.46,1.582,1.247,1.859,2.355c0.202,0.809,0.215,1.531,0.042,2.163
		c-0.175,0.635-0.471,1.195-0.889,1.673c-0.417,0.479-0.926,0.875-1.525,1.182c-0.598,0.312-1.222,0.546-1.868,0.708
		c-1.073,0.267-2.168,0.302-3.291,0.109c-1.123-0.194-2.124-0.686-3.008-1.477l1.335-1.62c0.521,0.537,1.187,0.93,2,1.179
		c0.812,0.25,1.645,0.269,2.495,0.056c0.443-0.11,0.859-0.254,1.245-0.438c0.382-0.177,0.7-0.412,0.955-0.686
		c0.254-0.279,0.431-0.598,0.535-0.958c0.104-0.357,0.097-0.767-0.018-1.235c-0.188-0.746-0.687-1.215-1.498-1.413
		c-0.812-0.193-1.934-0.285-3.368-0.274c-0.451,0.004-0.933-0.011-1.445-0.042c-0.512-0.035-1.008-0.147-1.485-0.341
		c-0.477-0.192-0.905-0.478-1.278-0.859c-0.374-0.375-0.645-0.9-0.811-1.57c-0.181-0.727-0.194-1.382-0.041-1.971
		c0.154-0.585,0.428-1.103,0.82-1.555c0.391-0.453,0.871-0.833,1.437-1.145c0.567-0.315,1.172-0.551,1.82-0.711
		c0.991-0.248,2.005-0.263,3.049-0.05c1.039,0.216,1.894,0.667,2.56,1.359L166.324,292.949z"/>
	<path fill="#4A494A" d="M174.642,280.896c0.138,0.416,0.103,0.808-0.106,1.174c-0.209,0.362-0.493,0.603-0.849,0.72
		c-0.356,0.118-0.727,0.092-1.113-0.079c-0.383-0.168-0.645-0.463-0.781-0.877c-0.137-0.415-0.1-0.807,0.108-1.171
		c0.209-0.363,0.491-0.604,0.847-0.722c0.357-0.12,0.727-0.092,1.112,0.078C174.245,280.187,174.506,280.482,174.642,280.896z
		 M180.562,300.269l-2.019,0.659l-4.577-13.889l2.021-0.661L180.562,300.269z"/>
	<path fill="#4A494A" d="M192.361,299.175c0.836,0.452,1.82,0.717,2.958,0.788c1.133,0.074,2.216-0.115,3.247-0.563
		c0.955-0.416,1.708-0.912,2.255-1.475c0.546-0.569,0.919-1.18,1.123-1.838c0.202-0.658,0.258-1.346,0.169-2.069
		c-0.088-0.721-0.292-1.447-0.606-2.172l-1.102-2.521l-0.056,0.022c-0.149,1.069-0.596,2.035-1.34,2.904
		c-0.746,0.871-1.606,1.519-2.58,1.945c-1.052,0.455-2.077,0.7-3.076,0.724c-1,0.027-1.933-0.128-2.797-0.467
		c-0.863-0.34-1.647-0.854-2.348-1.552c-0.701-0.69-1.263-1.524-1.691-2.5c-0.417-0.951-0.642-1.924-0.674-2.911
		c-0.033-0.985,0.114-1.922,0.44-2.818c0.326-0.889,0.834-1.703,1.526-2.436c0.691-0.731,1.563-1.328,2.612-1.788
		c0.974-0.425,2.03-0.611,3.166-0.562c1.138,0.051,2.158,0.387,3.07,1.013l0.056-0.023l-1.013-2.319l1.948-0.849l5.804,13.286
		c0.316,0.724,0.555,1.542,0.714,2.452c0.157,0.906,0.115,1.821-0.13,2.746c-0.245,0.927-0.733,1.823-1.471,2.688
		c-0.733,0.869-1.848,1.625-3.336,2.271c-1.242,0.546-2.531,0.823-3.866,0.835c-1.334,0.017-2.586-0.225-3.756-0.711
		L192.361,299.175z M188.555,289.445c0.309,0.706,0.716,1.325,1.221,1.854c0.503,0.53,1.075,0.941,1.714,1.232
		c0.638,0.29,1.333,0.434,2.084,0.438c0.751,0,1.526-0.174,2.328-0.524c0.746-0.325,1.378-0.748,1.9-1.271
		c0.522-0.525,0.913-1.113,1.171-1.771c0.26-0.658,0.378-1.362,0.355-2.114c-0.021-0.754-0.202-1.519-0.545-2.305
		c-0.309-0.707-0.729-1.318-1.262-1.835c-0.535-0.514-1.135-0.912-1.801-1.191c-0.668-0.275-1.379-0.423-2.135-0.433
		c-0.753-0.014-1.506,0.145-2.249,0.468c-0.804,0.351-1.456,0.808-1.962,1.368c-0.504,0.561-0.865,1.175-1.088,1.836
		c-0.22,0.665-0.309,1.364-0.264,2.096C188.069,288.021,188.247,288.737,188.555,289.445z"/>
	<path fill="#4A494A" d="M208.406,271.957c0.241,0.318,0.493,0.676,0.757,1.079c0.263,0.399,0.477,0.73,0.636,1.002l0.055-0.033
		c-0.082-0.947,0.142-1.892,0.673-2.83c0.528-0.937,1.24-1.676,2.133-2.212c1.589-0.952,3.068-1.195,4.43-0.727
		c1.362,0.471,2.511,1.479,3.445,3.035l4.617,7.69l-1.82,1.092l-4.169-6.937c-0.396-0.662-0.809-1.229-1.237-1.703
		c-0.429-0.47-0.887-0.817-1.378-1.049c-0.491-0.227-1.02-0.314-1.583-0.271c-0.566,0.052-1.181,0.276-1.842,0.673
		c-0.48,0.286-0.891,0.666-1.228,1.14c-0.338,0.467-0.565,1.012-0.682,1.626c-0.117,0.616-0.095,1.296,0.06,2.043
		c0.157,0.746,0.485,1.54,0.988,2.379l3.864,6.43l-1.822,1.092l-5.873-9.779c-0.204-0.338-0.478-0.771-0.813-1.294
		c-0.342-0.525-0.658-0.992-0.952-1.398L208.406,271.957z"/>
	<path fill="#4A494A" d="M240.649,257.878c0.092,0.115,0.188,0.241,0.29,0.371c0.103,0.133,0.205,0.275,0.302,0.438l-9.542,7.481
		c0.464,0.562,1.002,1.013,1.615,1.353c0.609,0.345,1.251,0.556,1.926,0.637c0.67,0.081,1.348,0.036,2.029-0.144
		c0.681-0.177,1.319-0.496,1.91-0.957c0.868-0.682,1.461-1.471,1.777-2.367c0.318-0.896,0.435-1.735,0.351-2.52h2.023
		c-0.007,1.412-0.279,2.631-0.81,3.656c-0.534,1.024-1.277,1.912-2.228,2.659c-0.853,0.667-1.762,1.135-2.728,1.399
		c-0.968,0.272-1.926,0.34-2.874,0.21c-0.949-0.133-1.865-0.446-2.747-0.945c-0.879-0.501-1.661-1.186-2.34-2.055
		c-0.679-0.871-1.16-1.791-1.445-2.763c-0.28-0.969-0.373-1.933-0.271-2.884c0.101-0.953,0.385-1.856,0.855-2.712
		c0.467-0.856,1.109-1.606,1.933-2.25c0.898-0.704,1.814-1.178,2.74-1.417c0.925-0.233,1.82-0.273,2.684-0.117
		c0.864,0.157,1.685,0.488,2.463,0.992C239.338,256.445,240.035,257.092,240.649,257.878z M238.529,258.668
		c-0.897-1.045-1.946-1.67-3.15-1.878c-1.209-0.206-2.409,0.161-3.605,1.099c-0.56,0.438-0.997,0.945-1.311,1.526
		c-0.316,0.576-0.516,1.184-0.6,1.815c-0.085,0.637-0.059,1.266,0.081,1.881c0.141,0.619,0.387,1.189,0.738,1.706L238.529,258.668z"
		/>
	<path fill="#4A494A" d="M243.58,248.199c-0.446-0.437-0.86-0.823-1.234-1.155l1.469-1.404c0.302,0.259,0.627,0.555,0.973,0.886
		c0.347,0.331,0.627,0.61,0.841,0.835l0.045-0.042c-0.288-0.907-0.314-1.838-0.08-2.798c0.235-0.962,0.729-1.8,1.482-2.524
		c0.195-0.188,0.379-0.348,0.553-0.482c0.171-0.137,0.361-0.264,0.571-0.376l1.199,1.663c-0.119,0.056-0.299,0.17-0.538,0.341
		c-0.241,0.172-0.465,0.361-0.675,0.562c-0.406,0.389-0.729,0.841-0.96,1.352c-0.231,0.508-0.334,1.057-0.303,1.647
		s0.199,1.22,0.506,1.886c0.311,0.673,0.801,1.36,1.476,2.066l5.165,5.411l-1.535,1.471l-7.876-8.25
		C244.385,249.002,244.026,248.639,243.58,248.199z"/>
</g>
<g>
	<g>
		<path fill="#FFFFFF" d="M93.169,52.346v127.961c0,0,0.58,40.058-40.059,40.058v17.584c0,0,60.233,11.525,60.233-60.524V52.346
			H93.169z"/>
		<path fill="#009BDF" d="M62.013,239.603C62.013,239.603,62.013,239.603,62.013,239.603c-5.393-0.002-8.937-0.666-9.084-0.695
			l-0.794-0.151v-19.369h0.976c11.814,0,21.208-3.453,27.921-10.265c11.281-11.444,11.163-28.628,11.161-28.801V51.37h22.127
			v126.054c0,24.05-6.646,41.49-19.753,51.837C83.741,237.809,70.89,239.603,62.013,239.603z M54.088,237.118
			c1.315,0.191,4.176,0.528,7.925,0.532c8.566,0,20.958-1.725,31.344-9.922c12.614-9.958,19.009-26.882,19.009-50.305V53.323H94.146
			v126.984c0.01,0.724,0.124,18.165-11.723,30.187c-6.907,7.008-16.435,10.65-28.336,10.84V237.118z"/>
	</g>
	<g>
		<path fill="#FFFFFF" d="M181.068,23.111V5.529c0,0-60.232-11.526-60.232,60.523v125.074h20.173v-82.187h18.373V91.65h-18.373
			V63.17C141.009,63.17,140.432,23.111,181.068,23.111z"/>
		<path fill="#009BDF" d="M141.986,192.104H119.86V66.052c0-18.695,5.095-62.177,52.307-62.177c5.393,0,8.937,0.667,9.085,0.695
			l0.792,0.152v19.366h-0.976c-11.805,0-21.193,3.448-27.907,10.252c-11.275,11.426-11.178,28.645-11.175,28.816v27.517h18.373
			v19.242h-18.373V192.104z M121.812,190.149h18.219v-82.187h18.374V92.626h-18.374V63.17c-0.009-0.722-0.123-18.168,11.727-30.189
			c6.906-7.006,16.435-10.65,28.333-10.839V6.361c-1.314-0.192-4.178-0.534-7.925-0.534c-18.807,0-50.354,7.826-50.354,60.225
			V190.149z"/>
	</g>
</g>
</svg>
