<?xml version="1.0" encoding="utf-8"?>
<!-- Generator: Adobe Illustrator 16.0.4, SVG Export Plug-In . SVG Version: 6.00 Build 0)  -->
<!DOCTYPE svg PUBLIC "-//W3C//DTD SVG 1.1//EN" "http://www.w3.org/Graphics/SVG/1.1/DTD/svg11.dtd">
<svg version="1.1" id="Layer_1" xmlns="http://www.w3.org/2000/svg" xmlns:xlink="http://www.w3.org/1999/xlink" x="0px" y="0px"
	 width="264.125px" height="69.394px" viewBox="248.047 259.997 264.125 69.394"
	 enable-background="new 248.047 259.997 264.125 69.394" xml:space="preserve">
<g>
	<path fill="#4A494A" d="M250.813,281.598l0.048,0.041l17.787-10.229l1.853,1.536l-20.624,11.649l-1.83-1.513l7.602-22.432
		l1.875,1.553L250.813,281.598z"/>
	<path fill="#4A494A" d="M263.864,295.057l-1.749-1.211l8.288-12.05l1.75,1.206L263.864,295.057z M275.7,278.618
		c-0.248,0.36-0.581,0.565-0.997,0.618c-0.417,0.058-0.779-0.022-1.089-0.238c-0.309-0.215-0.512-0.523-0.611-0.932
		c-0.096-0.404-0.021-0.793,0.228-1.154c0.247-0.36,0.578-0.57,0.996-0.621c0.417-0.057,0.778,0.027,1.088,0.238
		c0.308,0.21,0.512,0.521,0.609,0.932C276.021,277.871,275.948,278.255,275.7,278.618z"/>
	<path fill="#4A494A" d="M284.14,294.533c0.034-0.682-0.124-1.346-0.479-2.001c-0.354-0.652-0.88-1.188-1.582-1.595
		c-0.324-0.191-0.67-0.345-1.035-0.463c-0.365-0.119-0.722-0.17-1.069-0.156c-0.345,0.018-0.668,0.104-0.969,0.266
		c-0.3,0.166-0.549,0.416-0.75,0.759c-0.345,0.595-0.369,1.189-0.067,1.791c0.304,0.597,0.913,1.312,1.828,2.138
		c1.314,1.179,2.154,2.271,2.523,3.27c0.369,1,0.265,1.997-0.313,2.986c-0.42,0.718-0.915,1.244-1.481,1.576
		c-0.566,0.33-1.169,0.524-1.801,0.574c-0.635,0.053-1.273-0.021-1.92-0.219c-0.642-0.193-1.254-0.463-1.829-0.797
		c-0.953-0.561-1.763-1.301-2.43-2.225c-0.669-0.92-1.044-1.974-1.126-3.154l2.089-0.229c-0.005,0.75,0.2,1.495,0.608,2.239
		c0.409,0.747,0.991,1.341,1.745,1.786c0.396,0.229,0.795,0.416,1.197,0.555c0.401,0.138,0.79,0.195,1.165,0.175
		c0.375-0.022,0.723-0.127,1.049-0.31c0.325-0.185,0.606-0.481,0.849-0.897c0.389-0.664,0.362-1.35-0.083-2.059
		c-0.442-0.705-1.183-1.555-2.219-2.548c-0.326-0.312-0.66-0.66-1.002-1.04c-0.345-0.382-0.62-0.812-0.828-1.284
		c-0.208-0.47-0.312-0.97-0.314-1.505c-0.004-0.535,0.169-1.096,0.516-1.689c0.378-0.646,0.827-1.127,1.347-1.438
		c0.52-0.31,1.076-0.491,1.674-0.538c0.596-0.051,1.205,0.012,1.829,0.184c0.624,0.17,1.222,0.424,1.796,0.765
		c0.883,0.512,1.622,1.211,2.217,2.093c0.595,0.879,0.89,1.802,0.883,2.761L284.14,294.533z"/>
	<path fill="#4A494A" d="M298.617,314.009c0.124-0.378,0.272-0.792,0.449-1.235c0.176-0.446,0.328-0.813,0.456-1.1l-0.057-0.023
		c-0.73,0.61-1.63,0.966-2.702,1.065c-1.074,0.104-2.085-0.054-3.035-0.481c-1.696-0.752-2.74-1.826-3.136-3.213
		c-0.397-1.385-0.227-2.907,0.511-4.562l3.654-8.19l1.94,0.863l-3.297,7.396c-0.314,0.701-0.54,1.365-0.68,1.988
		c-0.142,0.621-0.164,1.195-0.069,1.729c0.09,0.532,0.32,1.019,0.685,1.452c0.365,0.438,0.899,0.812,1.602,1.128
		c0.516,0.229,1.061,0.349,1.64,0.354c0.58,0.006,1.153-0.117,1.726-0.377c0.569-0.259,1.117-0.666,1.639-1.221
		s0.979-1.275,1.379-2.173l3.054-6.851l1.941,0.864l-4.646,10.419c-0.161,0.36-0.36,0.831-0.594,1.412
		c-0.238,0.581-0.437,1.104-0.603,1.579L298.617,314.009z"/>
	<path fill="#4A494A" d="M322.973,312.568c0.375-1.205,0.333-2.201-0.12-2.991c-0.453-0.791-1.285-1.372-2.501-1.747
		c-0.833-0.262-1.657-0.354-2.467-0.273c-0.81,0.075-1.54,0.283-2.189,0.627l-0.72-1.694c0.757-0.398,1.666-0.638,2.73-0.724
		c1.061-0.086,2.19,0.059,3.383,0.426c0.758,0.234,1.434,0.558,2.023,0.971c0.592,0.413,1.07,0.904,1.438,1.479
		c0.366,0.569,0.591,1.221,0.674,1.941c0.08,0.723-0.013,1.51-0.276,2.371l-1.898,6.115c-0.168,0.537-0.323,1.102-0.46,1.691
		c-0.139,0.588-0.23,1.092-0.274,1.516l-1.821-0.564c0.046-0.355,0.111-0.736,0.192-1.148c0.085-0.41,0.186-0.806,0.304-1.184
		l-0.062-0.02c-0.927,0.74-1.856,1.188-2.79,1.345s-1.966,0.062-3.101-0.29c-0.538-0.168-1.066-0.41-1.586-0.737
		c-0.521-0.325-0.964-0.729-1.324-1.217c-0.363-0.481-0.615-1.041-0.757-1.675c-0.141-0.637-0.091-1.344,0.152-2.121
		c0.334-1.076,0.871-1.848,1.615-2.309c0.741-0.457,1.619-0.696,2.631-0.727c1.012-0.025,2.123,0.102,3.336,0.376
		c1.212,0.279,2.452,0.614,3.727,1.007L322.973,312.568z M321.738,314.439c-0.839-0.258-1.689-0.486-2.556-0.678
		c-0.868-0.191-1.679-0.291-2.431-0.297c-0.75-0.001-1.408,0.129-1.967,0.391c-0.562,0.266-0.946,0.723-1.15,1.379
		c-0.152,0.5-0.188,0.947-0.105,1.342c0.085,0.398,0.254,0.75,0.506,1.055c0.254,0.311,0.562,0.571,0.921,0.778
		c0.361,0.207,0.74,0.377,1.139,0.499c0.715,0.224,1.391,0.295,2.028,0.218c0.631-0.075,1.204-0.271,1.715-0.578
		c0.512-0.312,0.952-0.714,1.325-1.21c0.372-0.496,0.654-1.05,0.845-1.668l0.326-1.045L321.738,314.439z"/>
	<path fill="#4A494A" d="M333.755,324.994l-2.077-0.454l5.094-23.073l2.074,0.455L333.755,324.994z"/>
	<path fill="#4A494A" d="M365.869,307.238l7.343,0.029c1.376,0.008,2.756,0.24,4.14,0.703c1.383,0.463,2.63,1.161,3.74,2.092
		c1.109,0.933,2.006,2.092,2.688,3.479c0.681,1.391,1.018,3.002,1.011,4.832c-0.009,1.855-0.359,3.468-1.053,4.842
		s-1.599,2.52-2.718,3.444c-1.119,0.92-2.375,1.61-3.759,2.062c-1.389,0.455-2.769,0.676-4.144,0.67l-7.347-0.026L365.869,307.238z
		 M368.033,327.374l4.469,0.019c1.666,0.004,3.12-0.25,4.363-0.765c1.241-0.519,2.271-1.194,3.087-2.037
		c0.815-0.842,1.429-1.801,1.84-2.882c0.412-1.081,0.619-2.195,0.625-3.341c0.004-1.146-0.195-2.263-0.597-3.347
		c-0.401-1.088-1.005-2.051-1.814-2.901c-0.809-0.845-1.834-1.529-3.07-2.058c-1.237-0.525-2.688-0.791-4.355-0.799l-4.47-0.015
		L368.033,327.374z"/>
	<path fill="#4A494A" d="M408.644,318.893c0.021,0.145,0.041,0.301,0.063,0.465c0.021,0.166,0.036,0.341,0.042,0.531l-12.014,1.647
		c0.12,0.719,0.358,1.378,0.715,1.983c0.356,0.604,0.806,1.111,1.346,1.517c0.539,0.413,1.147,0.714,1.827,0.903
		c0.677,0.19,1.389,0.235,2.131,0.133c1.093-0.15,2.004-0.532,2.729-1.146c0.725-0.613,1.247-1.279,1.57-2l1.75,1.026
		c-0.717,1.213-1.563,2.128-2.542,2.741c-0.977,0.619-2.062,1.012-3.259,1.176c-1.075,0.148-2.096,0.093-3.067-0.164
		c-0.973-0.258-1.834-0.68-2.59-1.27c-0.751-0.592-1.384-1.322-1.894-2.199c-0.511-0.879-0.839-1.862-0.99-2.955
		c-0.151-1.096-0.104-2.131,0.14-3.113c0.244-0.979,0.651-1.854,1.216-2.628c0.568-0.771,1.27-1.403,2.104-1.912
		c0.834-0.504,1.77-0.823,2.801-0.966c1.135-0.155,2.162-0.104,3.081,0.159c0.92,0.263,1.713,0.679,2.379,1.253
		c0.667,0.572,1.21,1.268,1.628,2.095C408.23,316.996,408.506,317.898,408.644,318.893z M406.413,318.507
		c-0.249-1.353-0.844-2.427-1.781-3.209c-0.939-0.791-2.164-1.077-3.669-0.872c-0.703,0.098-1.335,0.315-1.897,0.656
		c-0.562,0.34-1.042,0.763-1.436,1.268c-0.393,0.508-0.685,1.062-0.874,1.668c-0.19,0.6-0.264,1.219-0.219,1.842L406.413,318.507z"
		/>
	<path fill="#4A494A" d="M424.426,311.807c-0.449-0.514-1.029-0.877-1.739-1.098s-1.459-0.234-2.249-0.036
		c-0.364,0.089-0.718,0.22-1.062,0.392c-0.343,0.17-0.634,0.381-0.872,0.637c-0.237,0.254-0.408,0.537-0.508,0.865
		c-0.102,0.324-0.104,0.681-0.007,1.064c0.165,0.668,0.565,1.11,1.2,1.328c0.634,0.217,1.565,0.301,2.801,0.254
		c1.765-0.074,3.128,0.117,4.09,0.576c0.962,0.46,1.582,1.247,1.859,2.355c0.201,0.809,0.215,1.53,0.042,2.162
		c-0.176,0.635-0.472,1.195-0.89,1.674c-0.417,0.479-0.926,0.875-1.524,1.182c-0.599,0.312-1.223,0.546-1.868,0.708
		c-1.073,0.267-2.168,0.302-3.291,0.108s-2.124-0.686-3.008-1.477l1.335-1.62c0.521,0.537,1.187,0.931,2,1.179
		c0.812,0.25,1.645,0.27,2.495,0.057c0.442-0.11,0.858-0.254,1.244-0.438c0.383-0.178,0.7-0.412,0.955-0.687
		c0.254-0.279,0.432-0.599,0.535-0.958c0.104-0.357,0.097-0.768-0.018-1.235c-0.188-0.745-0.688-1.215-1.498-1.413
		c-0.812-0.193-1.935-0.285-3.368-0.273c-0.451,0.004-0.933-0.012-1.445-0.042c-0.512-0.035-1.008-0.147-1.484-0.341
		c-0.478-0.192-0.905-0.479-1.278-0.859c-0.374-0.375-0.646-0.9-0.812-1.57c-0.181-0.727-0.193-1.382-0.041-1.971
		c0.154-0.585,0.429-1.104,0.82-1.555c0.392-0.453,0.871-0.834,1.438-1.146c0.566-0.315,1.172-0.551,1.819-0.711
		c0.991-0.248,2.005-0.263,3.05-0.05c1.038,0.216,1.894,0.667,2.56,1.359L424.426,311.807z"/>
	<path fill="#4A494A" d="M432.744,299.753c0.138,0.416,0.103,0.808-0.106,1.174c-0.209,0.362-0.493,0.603-0.849,0.72
		c-0.356,0.119-0.727,0.093-1.113-0.078c-0.383-0.168-0.645-0.463-0.781-0.877c-0.137-0.416-0.1-0.808,0.108-1.172
		c0.209-0.362,0.491-0.604,0.847-0.722c0.357-0.12,0.728-0.092,1.112,0.078C432.347,299.044,432.608,299.34,432.744,299.753z
		 M438.665,319.126l-2.019,0.659l-4.577-13.889l2.021-0.662L438.665,319.126z"/>
	<path fill="#4A494A" d="M450.463,318.032c0.836,0.452,1.82,0.717,2.958,0.788c1.133,0.074,2.216-0.115,3.247-0.563
		c0.955-0.416,1.708-0.911,2.255-1.475c0.546-0.569,0.919-1.181,1.123-1.839c0.202-0.657,0.258-1.346,0.169-2.068
		c-0.088-0.721-0.292-1.447-0.605-2.172l-1.103-2.521l-0.056,0.022c-0.149,1.069-0.596,2.035-1.34,2.903
		c-0.746,0.871-1.606,1.52-2.58,1.945c-1.052,0.455-2.077,0.7-3.076,0.725c-1,0.027-1.933-0.129-2.797-0.467
		c-0.863-0.34-1.647-0.854-2.348-1.553c-0.701-0.689-1.264-1.523-1.691-2.5c-0.417-0.951-0.642-1.924-0.674-2.91
		c-0.033-0.986,0.113-1.923,0.439-2.818c0.326-0.889,0.834-1.703,1.526-2.437c0.691-0.731,1.562-1.327,2.612-1.788
		c0.974-0.425,2.029-0.611,3.166-0.562c1.138,0.051,2.157,0.387,3.069,1.013l0.057-0.023l-1.014-2.318l1.948-0.85l5.804,13.287
		c0.316,0.724,0.556,1.541,0.714,2.451c0.157,0.906,0.115,1.821-0.13,2.746c-0.245,0.928-0.732,1.823-1.471,2.688
		c-0.733,0.869-1.848,1.625-3.336,2.271c-1.242,0.546-2.531,0.823-3.866,0.835c-1.334,0.017-2.586-0.225-3.756-0.711
		L450.463,318.032z M446.657,308.303c0.309,0.706,0.716,1.325,1.221,1.854c0.503,0.53,1.075,0.94,1.714,1.231
		s1.333,0.435,2.084,0.438c0.751,0,1.526-0.175,2.328-0.524c0.746-0.324,1.378-0.748,1.9-1.271c0.521-0.525,0.913-1.113,1.171-1.771
		c0.26-0.658,0.378-1.363,0.354-2.115c-0.021-0.754-0.201-1.519-0.545-2.305c-0.309-0.707-0.729-1.318-1.262-1.835
		c-0.535-0.514-1.135-0.911-1.801-1.19c-0.668-0.275-1.379-0.424-2.135-0.434c-0.754-0.014-1.507,0.145-2.249,0.469
		c-0.805,0.351-1.456,0.808-1.963,1.367c-0.504,0.561-0.864,1.176-1.088,1.836c-0.22,0.666-0.309,1.364-0.264,2.096
		C446.171,306.878,446.349,307.596,446.657,308.303z"/>
	<path fill="#4A494A" d="M466.508,290.814c0.241,0.317,0.493,0.676,0.757,1.078c0.264,0.399,0.478,0.73,0.637,1.002l0.055-0.033
		c-0.082-0.946,0.142-1.891,0.673-2.829c0.528-0.937,1.24-1.677,2.133-2.212c1.589-0.952,3.068-1.195,4.431-0.727
		c1.361,0.471,2.511,1.479,3.444,3.034l4.617,7.69l-1.82,1.092l-4.169-6.938c-0.396-0.662-0.809-1.229-1.236-1.703
		c-0.43-0.47-0.888-0.816-1.378-1.049c-0.491-0.227-1.021-0.313-1.583-0.271c-0.566,0.052-1.182,0.276-1.843,0.673
		c-0.479,0.286-0.891,0.666-1.228,1.141c-0.338,0.467-0.565,1.012-0.683,1.625c-0.116,0.616-0.095,1.297,0.061,2.043
		c0.157,0.746,0.485,1.541,0.988,2.379l3.863,6.431l-1.821,1.092l-5.873-9.778c-0.204-0.339-0.479-0.771-0.813-1.295
		c-0.342-0.525-0.658-0.992-0.952-1.397L466.508,290.814z"/>
	<path fill="#4A494A" d="M498.751,276.734c0.092,0.115,0.188,0.242,0.29,0.371c0.103,0.133,0.205,0.275,0.302,0.438l-9.542,7.481
		c0.464,0.562,1.002,1.013,1.615,1.353c0.609,0.345,1.251,0.556,1.926,0.638c0.67,0.08,1.349,0.035,2.029-0.145
		c0.681-0.178,1.319-0.496,1.91-0.957c0.868-0.682,1.461-1.471,1.776-2.367c0.318-0.896,0.436-1.734,0.352-2.52h2.022
		c-0.007,1.412-0.278,2.631-0.81,3.656c-0.534,1.023-1.277,1.911-2.228,2.658c-0.854,0.667-1.763,1.135-2.729,1.398
		c-0.968,0.272-1.926,0.341-2.874,0.211c-0.949-0.133-1.865-0.446-2.747-0.945c-0.879-0.501-1.661-1.186-2.34-2.055
		c-0.679-0.871-1.16-1.791-1.445-2.764c-0.279-0.969-0.373-1.933-0.271-2.884c0.101-0.952,0.385-1.856,0.854-2.712
		c0.468-0.855,1.109-1.605,1.934-2.25c0.897-0.704,1.813-1.178,2.739-1.417c0.926-0.233,1.82-0.272,2.685-0.116
		s1.685,0.487,2.463,0.991C497.44,275.303,498.137,275.949,498.751,276.734z M496.631,277.525c-0.896-1.045-1.946-1.67-3.149-1.879
		c-1.209-0.205-2.409,0.162-3.605,1.1c-0.56,0.438-0.997,0.945-1.311,1.525c-0.316,0.576-0.517,1.185-0.601,1.815
		c-0.085,0.638-0.059,1.267,0.081,1.881c0.141,0.619,0.387,1.189,0.738,1.706L496.631,277.525z"/>
	<path fill="#4A494A" d="M501.682,267.057c-0.445-0.437-0.859-0.822-1.233-1.154l1.469-1.404c0.302,0.259,0.627,0.555,0.973,0.886
		c0.348,0.331,0.627,0.61,0.842,0.835l0.045-0.042c-0.288-0.907-0.314-1.838-0.08-2.798c0.234-0.962,0.729-1.8,1.481-2.523
		c0.195-0.188,0.379-0.349,0.554-0.482c0.171-0.137,0.36-0.264,0.57-0.376l1.199,1.663c-0.119,0.056-0.299,0.17-0.538,0.341
		c-0.241,0.172-0.465,0.36-0.675,0.562c-0.406,0.39-0.729,0.842-0.96,1.353c-0.231,0.508-0.334,1.058-0.303,1.647
		c0.03,0.59,0.198,1.22,0.506,1.886c0.311,0.673,0.801,1.36,1.476,2.065l5.165,5.411l-1.535,1.472l-7.876-8.25
		C502.487,267.859,502.128,267.496,501.682,267.057z"/>
</g>
</svg>
